<svg xmlns="http://www.w3.org/2000/svg" width="1200" height="630" viewBox="0 0 1200 630" role="img" aria-labelledby="title desc">
  <title id="title">Guia completa de reparacion en Cali</title>
  <desc id="desc">Ilustracion de herramientas tecnicas para una guia completa de reparacion.</desc>
  <defs>
    <linearGradient id="bg" x1="0" y1="0" x2="1" y2="1">
      <stop offset="0%" stop-color="#111827"/>
      <stop offset="100%" stop-color="#0f766e"/>
    </linearGradient>
  </defs>
  <rect width="1200" height="630" fill="url(#bg)"/>
  <circle cx="1000" cy="120" r="180" fill="#5eead4" opacity="0.2"/>
  <rect x="740" y="170" width="290" height="290" rx="24" fill="#e5e7eb"/>
  <rect x="790" y="220" width="190" height="26" rx="8" fill="#94a3b8"/>
  <rect x="790" y="262" width="150" height="20" rx="8" fill="#cbd5e1"/>
  <rect x="790" y="297" width="170" height="20" rx="8" fill="#cbd5e1"/>
  <rect x="790" y="332" width="120" height="20" rx="8" fill="#cbd5e1"/>
  <circle cx="950" cy="404" r="28" fill="#14b8a6"/>
  <path d="M938 404 l8 8 l16 -18" stroke="#042f2e" stroke-width="6" fill="none"/>
  <text x="130" y="182" font-family="Segoe UI, Arial, sans-serif" font-size="48" font-weight="700" fill="#ffffff">Guia completa</text>
  <text x="130" y="252" font-family="Segoe UI, Arial, sans-serif" font-size="44" font-weight="700" fill="#ffffff">de reparacion de</text>
  <text x="130" y="322" font-family="Segoe UI, Arial, sans-serif" font-size="44" font-weight="700" fill="#ffffff">electrodomesticos</text>
  <text x="130" y="388" font-family="Segoe UI, Arial, sans-serif" font-size="32" fill="#ccfbf1">Proceso, tiempos y senales</text>
  <text x="130" y="434" font-family="Segoe UI, Arial, sans-serif" font-size="32" fill="#ccfbf1">para tomar mejores decisiones</text>
  <rect x="130" y="458" width="318" height="56" rx="12" fill="#5eead4"/>
  <text x="166" y="496" font-family="Segoe UI, Arial, sans-serif" font-size="28" font-weight="700" fill="#134e4a">Lectura esencial</text>
</svg>
